<?xml version="1.0"?>
<svg xmlns="http://www.w3.org/2000/svg" id="Capa_1" enable-background="new 0 0 512 512" height="512px" viewBox="0 0 512 512" width="512px"><g><g><path d="m497 60.974c-8.291 0-15 6.709-15 15 0 99.697-112.328 193.975-181 216.006v-2.461c0-19.614 4.644-39.272 13.418-56.836 2.329-4.658 2.08-10.181-.659-14.59-2.739-4.424-7.559-7.119-12.759-7.119h-90c-5.2 0-10.02 2.695-12.759 7.119-2.739 4.409-2.988 9.932-.659 14.59 8.774 17.563 13.418 37.221 13.418 56.836v2.461c-68.672-22.032-181-116.309-181-216.006 0-8.291-6.709-15-15-15s-15 6.709-15 15v43.682c0 159.521 101.356 304.336 250.727 360.366 1.699.63 3.486.952 5.273.952s3.574-.322 5.273-.952c149.371-56.031 250.727-200.845 250.727-360.367v-43.681c0-8.291-6.709-15-15-15z" data-original="#000000" class="active-path" data-old_color="#000000" fill="#9449E7"/><path d="m269.55 42.927c-8.291 4.541-18.838 4.541-27.1 0-21.387-11.733-46.802-14.941-70.459-8.936-31.523 8.042-55.854 34.38-63.501 68.716-.996 4.438.088 9.097 2.93 12.642 2.842 3.56 7.148 5.625 11.704 5.625h60.454c26.968 0 53.364-10.928 72.422-30 19.058 19.072 45.454 30 72.422 30h60.454c4.556 0 8.862-2.065 11.704-5.625 2.842-3.545 3.926-8.203 2.93-12.642-7.661-34.336-31.992-60.674-63.516-68.73-23.628-5.992-49.028-2.784-70.444 8.95z" data-original="#000000" class="active-path" data-old_color="#000000" fill="#9449E7"/></g></g> </svg>
