<?xml version="1.0"?>
<svg xmlns="http://www.w3.org/2000/svg" xmlns:xlink="http://www.w3.org/1999/xlink" version="1.1" id="Capa_1" x="0px" y="0px" viewBox="0 0 512 512" style="enable-background:new 0 0 512 512;" xml:space="preserve" width="512px" height="512px"><g><g>
	<g>
		<g>
			<path d="M320,149.927v-43.26h10.667c5.896,0,10.667-4.771,10.667-10.667V53.333c0-5.896-4.771-10.667-10.667-10.667h-4.094     l13.594-27.24c1.646-3.313,1.479-7.24-0.479-10.385C337.75,1.906,334.313,0,330.625,0h-0.021L181.375,0.375     c-3.708,0.01-7.125,1.927-9.063,5.083c-1.938,3.146-2.104,7.073-0.438,10.375l13.496,26.833h-4.038     c-5.896,0-10.667,4.771-10.667,10.667V96c0,5.896,4.771,10.667,10.667,10.667H192v43.26     c-47.938,5.323-85.333,46.073-85.333,95.406v224c0,23.531,19.146,42.667,42.667,42.667h213.333     c23.521,0,42.667-19.135,42.667-42.667v-224C405.333,196,367.938,155.25,320,149.927z M313.354,21.375l-10.617,21.292h-93.5     l-10.549-21L313.354,21.375z M192,64h128v21.333H192V64z M202.667,170.667c5.896,0,10.667-4.771,10.667-10.667v-53.333h85.333     V160c0,5.896,4.771,10.667,10.667,10.667c37.514,0,68.357,27.911,73.589,64H129.078     C134.31,198.578,165.152,170.667,202.667,170.667z M384,469.333c0,11.76-9.563,21.333-21.333,21.333H149.333     c-11.771,0-21.333-9.573-21.333-21.333v-42.667h256V469.333z M384,298.667v106.667H128v-106.74V256h256V298.667z" data-original="#000000" class="active-path" data-old_color="#000000" fill="#69E781"/>
			<path d="M376.104,288.49c-4.625-1.281-9.625,0.823-12.063,4.958c-0.271,0.427-6.5,10.552-24.833,10.552     c-9.521,0-13.292-2.583-18.542-6.146c-6.438-4.396-14.458-9.854-30.542-9.854c-14.603,0-26.297,4.948-34.125,13.426     C248.172,292.948,236.478,288,221.875,288c-16.083,0-24.104,5.458-30.542,9.854c-5.25,3.563-9.021,6.146-18.542,6.146     c-18.333,0-24.563-10.125-24.708-10.354c-2.313-4.313-7.229-6.469-11.979-5.333c-4.729,1.167-8.063,5.406-8.104,10.281     c0,1.219,0.063,30.115,21.604,51.813c15.125,15.219,36.563,22.927,63.729,22.927c18.921,0,33.512-7.406,42.667-17.516     c9.155,10.109,23.746,17.516,42.667,17.516c84.354,0,85.333-73.917,85.333-74.667C384,293.865,380.729,289.771,376.104,288.49z      M213.333,352c-34.604,0-50.521-14.906-57.813-29.021c4.938,1.448,10.667,2.354,17.271,2.354c16.083,0,24.104-5.458,30.542-9.854     c5.25-3.563,9.021-6.146,18.542-6.146c15.563,0,23.458,7.177,23.458,21.333C245.333,340.969,232.479,352,213.333,352z      M298.667,352c-19.146,0-32-11.031-32-21.333c0-14.156,7.896-21.333,23.458-21.333c9.521,0,13.292,2.583,18.542,6.146     c6.438,4.396,14.458,9.854,30.542,9.854c6.458,0,12.083-0.865,16.958-2.26C348.708,337.125,332.792,352,298.667,352z" data-original="#000000" class="active-path" data-old_color="#000000" fill="#69E781"/>
		</g>
	</g>
</g></g> </svg>
