<svg height="512pt" viewBox="-148 0 512 512.00002" width="512pt" xmlns="http://www.w3.org/2000/svg"><path d="m20.476562 111.402344h175.179688v289.195312h-175.179688zm0 0" fill="#e0f4fe"/><path d="m108.066406 111.402344h87.589844v289.195312h-87.589844zm0 0" fill="#bcdbfd"/><path d="m93.066406 0h30v36.066406h-30zm0 0" fill="#fed843"/><path d="m93.066406 475.933594h30v36.066406h-30zm0 0" fill="#fed843"/><path d="m178.472656 111.402344h-41.179687l-116.816407 78.816406v36.191406l161.882813-109.226562zm0 0" fill="#2d3c72"/><path d="m195.65625 149.160156-175.179688 118.199219v36.191406l175.179688-118.199219zm0 0" fill="#f86097"/><path d="m195.65625 226.285156-175.179688 118.113282v36.183593l175.179688-118.113281zm0 0" fill="#2d3c72"/><path d="m195.65625 303.40625-144.046875 97.191406h53.636719l90.410156-61zm0 0" fill="#f86097"/><path d="m108.066406 0h15v36.066406h-15zm0 0" fill="#edbe2b"/><path d="m108.066406 475.933594h15v36.066406h-15zm0 0" fill="#edbe2b"/><path d="m178.472656 111.402344h-41.179687l-29.226563 19.71875v36.1875l74.292969-50.125zm0 0" fill="#1a2958"/><path d="m195.65625 149.160156-87.589844 59.101563v36.1875l87.589844-59.097657zm0 0" fill="#d75288"/><path d="m195.65625 262.46875v-36.183594l-87.589844 59.058594v36.179688zm0 0" fill="#1a2958"/><path d="m195.65625 339.597656v-36.191406l-87.589844 59.101562v36.1875zm0 0" fill="#d75288"/><path d="m195.65625 111.402344h-175.179688v-2.746094c0-48.296875 39.292969-87.589844 87.589844-87.589844s87.589844 39.292969 87.589844 87.589844zm0 0" fill="#704c31"/><path d="m195.65625 108.65625c0-48.296875-39.292969-87.589844-87.589844-87.589844v90.332032h87.589844zm0 0" fill="#5b3e26"/><path d="m0 96.402344h216.136719v30h-216.136719zm0 0" fill="#885d40"/><path d="m108.066406 96.402344h108.066406v30h-108.066406zm0 0" fill="#704c31"/><path d="m108.066406 490.933594c-48.296875 0-87.589844-39.292969-87.589844-87.589844v-2.746094h175.179688v2.746094c0 48.296875-39.292969 87.589844-87.589844 87.589844zm0 0" fill="#704c31"/><path d="m195.65625 403.34375v-2.746094h-87.589844v90.335938c48.296875 0 87.589844-39.292969 87.589844-87.589844zm0 0" fill="#5b3e26"/><path d="m0 385.597656h216.136719v30h-216.136719zm0 0" fill="#885d40"/><path d="m108.066406 385.597656h108.066406v30h-108.066406zm0 0" fill="#704c31"/></svg>