<?xml version="1.0"?>
<svg xmlns="http://www.w3.org/2000/svg" height="512px" viewBox="0 0 512 512" width="512px"><g><path d="m477 472v-472h-120v472h-40v-312h-120v312h-40v-173h-120v173h-37v40h512v-40zm-400 0v-133h40v133zm160-272h40v272h-40zm160 272v-432h40v432zm-343.019531-259.039062c-11.59375-11.5625-17.980469-26.820313-17.980469-42.960938v-8h40v8c0 11.316406 9.617188 20.875 21 20.875 11.1875 0 21-9.953125 21-21.300781 0-8.722657-9.59375-14.660157-29.957031-25.230469l-.261719-.136719c-16-8.308593-45.78125-23.769531-45.78125-61.550781 0-22.757812 14.535156-42.242188 35-50.085938v-32.570312h40v32.472656c6.714844 2.511719 12.90625 6.289063 18.21875 11.21875 10.820312 10.039063 16.78125 23.648438 16.78125 38.308594v5h-40v-5c0-8.214844-7.625-13.125-15-13.125-8.269531 0-15 6.183594-15 13.78125 0 10.707031 4.980469 16.0625 24.214844 26.050781l.261718.136719c11.171876 5.800781 22.726563 11.800781 32.144532 20.074219 12.859375 11.300781 19.378906 24.976562 19.378906 40.65625 0 16.109375-6.351562 31.410156-17.882812 43.074219-6.664063 6.742187-14.550782 11.738281-23.117188 14.78125v32.570312h-40v-32.523438c-8.53125-2.992187-16.382812-7.898437-23.019531-14.515624zm0 0" data-original="#000000" class="active-path" data-old_color="#000000" fill="#2BAC14"/></g> </svg>
