<svg width="48" height="48" xmlns="http://www.w3.org/2000/svg">
 <title/>

 <g>
  <title>background</title>
  <rect fill="none" id="canvas_background" height="402" width="582" y="-1" x="-1"/>
 </g>
 <g>
  <title>Layer 1</title>
  <path fill="#ffffff" id="svg_1" d="m40.62,28.34l-0.87,-0.7a2,2 0 0 1 -0.75,-1.56l0,-8.08a15,15 0 0 0 -12.09,-14.71a3,3 0 0 0 -5.81,0a15,15 0 0 0 -12.1,14.71l0,8.08a2,2 0 0 1 -0.75,1.56l-0.87,0.7a9,9 0 0 0 -3.38,7l0,1.66a4,4 0 0 0 4,4l8.26,0a8,8 0 0 0 15.47,0l8.27,0a4,4 0 0 0 4,-4l0,-1.64a9,9 0 0 0 -3.38,-7.02zm-16.62,14.66a4,4 0 0 1 -3.44,-2l6.89,0a4,4 0 0 1 -3.45,2zm16,-6l-32,0l0,-1.64a5,5 0 0 1 1.88,-3.9l0.87,-0.7a6,6 0 0 0 2.25,-4.68l0,-8.08a11,11 0 0 1 22,0l0,8.08a6,6 0 0 0 2.25,4.69l0.87,0.7a5,5 0 0 1 1.88,3.89l0,1.64z"/>
 </g>
</svg>