<svg xmlns="http://www.w3.org/2000/svg" xmlns:xlink="http://www.w3.org/1999/xlink" version="1.1" enable-background="new 0 0 1000 1000" xml:space="preserve" width="1000" height="1000"><rect id="backgroundrect" width="100%" height="100%" x="0" y="0" fill="none" stroke="none"/>
<metadata> Svg Vector Icons : http://www.onlinewebfonts.com/icon </metadata>

<g class="currentLayer" style=""><title>Layer 1</title><g id="svg_1" class="selected" fill="#e841e8" fill-opacity="1"><path d="M468,452.7" id="svg_2" fill="#e841e8" fill-opacity="1"/><path d="M257.1,223c27-0.1,47.9-21.6,48.3-49.9c0.2-15.6,0-31.2,0-46.8h0.1c0-0.3,0-0.5,0-0.8c0-15.7,0.1-31.4,0-47.1c-0.1-13-3.9-24.7-12.9-34.3c-14.3-15.1-33.8-19.5-53-12.2c-18.7,7.1-30.7,23.9-30.9,44.8c-0.2,16.3-0.2,32.6-0.2,48.8c0,15.6,0,31.2,0.1,46.8C208.5,200.7,230,223.1,257.1,223z" id="svg_3" fill="#e841e8" fill-opacity="1"/><path d="M746.4,223.9c27-0.1,47.9-21.6,48.3-49.9c0.2-15.6,0-31.2,0-46.8h0.1c0-0.3,0-0.5,0-0.8c0-15.7,0.1-31.4,0-47.1c-0.1-13-3.9-24.7-12.9-34.3c-14.3-15.1-33.8-19.5-53-12.2c-18.7,7.1-30.7,23.9-30.9,44.8c-0.2,16.3-0.2,32.6-0.2,48.8c0,15.6,0,31.2,0.1,46.8C697.9,201.6,719.4,224,746.4,223.9z" id="svg_4" fill="#e841e8" fill-opacity="1"/><path d="M535.2,583h128.5v95.7H535.2V583z" id="svg_5" fill="#e841e8" fill-opacity="1"/><path d="M730.7,452.5H859v95.8H730.7V452.5L730.7,452.5z" id="svg_6" fill="#e841e8" fill-opacity="1"/><path d="M730.8,582.7h128.2v96.1H730.8V582.7z" id="svg_7" fill="#e841e8" fill-opacity="1"/><path d="M339.7,713.6h128.3v95.9H339.7V713.6z" id="svg_8" fill="#e841e8" fill-opacity="1"/><path d="M535.3,713.4h128.3v95.7H535.3V713.4z" id="svg_9" fill="#e841e8" fill-opacity="1"/><path d="M730.9,713.5h128.4v95.6H730.9V713.5z" id="svg_10" fill="#e841e8" fill-opacity="1"/><path d="M143.7,713.6h128.5v95.7H143.7V713.6z" id="svg_11" fill="#e841e8" fill-opacity="1"/><path d="M144,583.1h128.3V679H144V583.1z" id="svg_12" fill="#e841e8" fill-opacity="1"/><path d="M535,452.8h128.5v95.7H535V452.8L535,452.8z" id="svg_13" fill="#e841e8" fill-opacity="1"/><path d="M339.4,583.2h128.5v95.7H339.4V583.2z" id="svg_14" fill="#e841e8" fill-opacity="1"/><path d="M339.7,452.7H468v95.8H339.7V452.7L339.7,452.7z" id="svg_15" fill="#e841e8" fill-opacity="1"/><path d="M971,125.5H810.4c0,19.3,0.2,38.7-0.1,58.1c-0.5,38.1-28.7,67-64.9,67.1c-36.4,0.1-65.3-29.9-65.3-68.1c0-19-0.1-38-0.1-57H321.6c0,20,0.2,40-0.1,60c-0.2,16.5-5.2,31.5-17.2,43.7c-19,19.2-45,24.9-70.5,15.6c-24.9-9.1-40.8-30.4-41.1-57.1c-0.2-20.7-0.3-41.5-0.3-62.2H29c-10.5,0-19,8.5-19,19v808c0,10.5,8.5,19,19,19H971c10.5,0,19-8.5,19-19v-808C990,134,981.5,125.5,971,125.5z M932.7,908.2H71.5v-26.6v-30.5V380.7h860.4v470.4h0.8V908.2L932.7,908.2z" id="svg_16" fill="#e841e8" fill-opacity="1"/></g></g></svg>