<?xml version="1.0"?>
<svg xmlns="http://www.w3.org/2000/svg" id="Layer_37" enable-background="new 0 0 64 64" height="512px" viewBox="0 0 64 64" width="512px"><g><g><path d="m24 39v-1h-1c-2.954 0-7 0-7 6v4h1c5.249 0 6.813-1.13 7.97-5.757l-1.718-.43c.734-1.477.748-2.727.748-2.813zm-6 6.986v-1.986c0-3.452 1.481-3.925 3.823-3.99-.254.875-.873 2.154-2.378 3.158l1.109 1.664c1.031-.688 1.754-1.48 2.26-2.255-.725 2.596-1.479 3.307-4.814 3.409z" data-original="#000000" class="active-path" data-old_color="#000000" fill="#4949E7"/><path d="m20 30c-4.411 0-8 3.589-8 8v9c0 4.411 3.589 8 8 8s8-3.589 8-8v-9c0-4.411-3.589-8-8-8zm6 17c0 3.309-2.691 6-6 6s-6-2.691-6-6v-9c0-3.309 2.691-6 6-6s6 2.691 6 6z" data-original="#000000" class="active-path" data-old_color="#000000" fill="#4949E7"/><path d="m27.818 12.461c.918.253 1.959.539 3.182.539 3.375 0 5.613-2.199 5.707-2.293l1.707-1.707h-2.414c-1.909 0-3.168-1.555-4.626-3.356-1.763-2.177-3.761-4.644-7.374-4.644-3.333 0-8.899 1.416-8.991 10.773-.615.55-1.009 1.34-1.009 2.227 0 .771.301 1.468.78 2-.48.532-.78 1.229-.78 2 0 .37.076.721.2 1.049-3.484.399-6.2 3.362-6.2 6.951v11c0 5.169-1.531 17.317-1.908 20.228-.645.332-1.092.998-1.092 1.772v2c0 1.103.897 2 2 2h26c1.103 0 2-.897 2-2v-2c0-.774-.447-1.44-1.092-1.772-.377-2.911-1.908-15.059-1.908-20.228v-11c0-3.589-2.716-6.552-6.2-6.951.124-.328.2-.679.2-1.049 0-.771-.301-1.468-.78-2 .48-.532.78-1.229.78-2 0-.664-.224-1.272-.59-1.77.605-.235 1.292-.075 2.408.231zm-3.818-9.461c2.659 0 4.194 1.896 5.819 3.902.896 1.107 1.812 2.228 2.927 3.019-2.04-.246-3.079-1.085-4.156-1.972-1.16-.958-2.362-1.949-4.59-1.949-3.903 0-5.585 2.51-5.93 5h-1.046c.247-5.379 2.534-8 6.976-8zm0 11c0 .551-.448 1-1 1h-6c-.552 0-1-.449-1-1s.448-1 1-1h6c.552 0 1 .449 1 1zm0 4c0 .551-.448 1-1 1h-6c-.552 0-1-.449-1-1s.448-1 1-1h6c.552 0 1 .449 1 1zm7.861 39h-23.722c.466-3.626 1.861-14.896 1.861-20v-9h20v9c0 5.104 1.395 16.374 1.861 20zm1.139 4h-26v-2h26zm-3-35h-20c0-2.757 2.243-5 5-5h10c2.757 0 5 2.243 5 5zm-6.427-14.942c-.186-.036-.377-.058-.573-.058h-2.907c.246-1.317 1.105-3 3.907-3 1.51 0 2.269.625 3.318 1.492.474.391.995.813 1.62 1.2-.198-.051-.395-.105-.589-.158-1.493-.411-3.172-.85-4.776.524z" data-original="#000000" class="active-path" data-old_color="#000000" fill="#4949E7"/><path d="m56.68 55.382c.717-.771 1.32-1.865 1.32-3.382 0-4.514-5.262-7.723-5.485-7.857l-1.069-.642-.394 1.183c-.009.025-.871 2.536-3.368 3.368-.673.224-1.431.402-2.163.575-2.46.577-5.521 1.297-5.521 4.373 0 .832.206 1.499.518 2.049-1.977.241-3.518 1.911-3.518 3.951 0 2.206 1.794 4 4 4h14c2.206 0 4-1.794 4-4 0-1.604-.954-2.981-2.32-3.618zm-1.68 5.618h-14c-1.103 0-2-.897-2-2s.897-2 2-2h3v-2c-.334 0-2-.096-2-2 0-1.345 1.274-1.792 3.979-2.427.776-.182 1.579-.371 2.338-.624 2.179-.726 3.438-2.338 4.08-3.456 1.319 1.004 3.603 3.091 3.603 5.507 0 1.94-1.694 2.793-2.186 3h-5.814v2h7c1.103 0 2 .897 2 2s-.897 2-2 2z" data-original="#000000" class="active-path" data-old_color="#000000" fill="#4949E7"/><path d="m55 53c0-.247-.036-2.451-1.293-3.707l-1.414 1.414c.57.57.705 1.881.707 2.293z" data-original="#000000" class="active-path" data-old_color="#000000" fill="#4949E7"/></g></g> </svg>
