<?xml version="1.0"?>
<svg xmlns="http://www.w3.org/2000/svg" xmlns:xlink="http://www.w3.org/1999/xlink" version="1.1" id="Layer_1" x="0px" y="0px" viewBox="0 0 320 320" style="enable-background:new 0 0 320 320;" xml:space="preserve" width="512px" height="512px" class=""><g><g id="XMLID_12_">
	<path id="XMLID_13_" d="M169.392,194.395c-5.858,5.858-5.858,15.355,0,21.213c2.929,2.929,6.768,4.394,10.606,4.394   c3.839,0,7.678-1.464,10.606-4.394l44.998-44.997c0.35-0.351,0.683-0.719,0.997-1.103c0.137-0.167,0.256-0.344,0.385-0.515   c0.165-0.22,0.335-0.435,0.488-0.664c0.14-0.209,0.261-0.426,0.389-0.64c0.123-0.206,0.252-0.407,0.366-0.619   c0.118-0.22,0.217-0.446,0.323-0.67c0.104-0.219,0.213-0.435,0.306-0.659c0.09-0.219,0.163-0.442,0.243-0.664   c0.087-0.24,0.178-0.477,0.253-0.722c0.067-0.222,0.116-0.447,0.172-0.672c0.063-0.249,0.133-0.497,0.184-0.751   c0.051-0.259,0.082-0.521,0.119-0.782c0.032-0.223,0.075-0.443,0.097-0.669c0.048-0.484,0.073-0.971,0.074-1.457   c0-0.007,0.001-0.015,0.001-0.022c0-0.007-0.001-0.015-0.001-0.022c-0.001-0.487-0.026-0.973-0.074-1.458   c-0.022-0.223-0.064-0.44-0.095-0.661c-0.038-0.264-0.069-0.528-0.121-0.79c-0.05-0.252-0.119-0.496-0.182-0.743   c-0.057-0.227-0.107-0.456-0.175-0.681c-0.073-0.241-0.164-0.474-0.249-0.711c-0.081-0.226-0.155-0.453-0.247-0.675   c-0.091-0.22-0.199-0.431-0.3-0.645c-0.108-0.229-0.21-0.46-0.33-0.685c-0.11-0.205-0.235-0.4-0.354-0.599   c-0.132-0.221-0.256-0.444-0.4-0.659c-0.146-0.219-0.309-0.424-0.466-0.635c-0.136-0.181-0.262-0.368-0.407-0.544   c-0.299-0.364-0.616-0.713-0.948-1.048c-0.016-0.016-0.029-0.034-0.045-0.05l-45-45.001c-5.858-5.858-15.355-5.857-21.213,0   c-5.858,5.858-5.858,15.355,0,21.213l19.394,19.395H15c-8.284,0-15,6.716-15,15c0,8.284,6.716,15,15,15h173.785L169.392,194.395z" data-original="#000000" class="" data-old_color="#000000" fill="#FFFFFF"/>
	<path id="XMLID_14_" d="M305,25H115c-8.284,0-15,6.716-15,15v60c0,8.284,6.716,15,15,15s15-6.716,15-15V55h160V265H130v-45.001   c0-8.284-6.716-15-15-15s-15,6.716-15,15V280c0,8.284,6.716,15,15,15h190c8.284,0,15-6.716,15-15V40C320,31.715,313.284,25,305,25z   " data-original="#000000" class="" data-old_color="#000000" fill="#FFFFFF"/>
</g></g> </svg>
