<?xml version="1.0"?>
<svg xmlns="http://www.w3.org/2000/svg" xmlns:xlink="http://www.w3.org/1999/xlink" version="1.1" id="Capa_1" x="0px" y="0px" width="512px" height="512px" viewBox="0 0 382.673 382.673" style="enable-background:new 0 0 382.673 382.673;" xml:space="preserve" class=""><g><g>
	<g>
		<path d="M249.888,188.385c-4.823-24.522-46.884-39.054-56.646-20.663c-9.762-18.392-51.829-3.859-56.658,20.663    c-6.323,25.654-39.754,32.719-58.338,19.337c0,28.971,31.219,29.356,50.533,31.202c45.745-2.01,60.189-23.098,64.463-32.731    c4.262,9.646,18.707,30.722,64.458,32.731c19.325-1.846,50.526-2.242,50.526-31.202    C289.636,221.104,256.216,214.028,249.888,188.385z" data-original="#000000" class="active-path" data-old_color="#000000" fill="#FF9000"/>
		<path d="M193.242,88.324c7.987,0,14.479,6.486,14.479,14.485c0,7.993-6.493,14.479-14.479,14.479    c-7.999,0-14.486-6.486-14.486-14.479C178.756,94.811,185.244,88.324,193.242,88.324z" data-original="#000000" class="active-path" data-old_color="#000000" fill="#FF9000"/>
		<path d="M193.254,268.934c7.987,0,14.468,6.469,14.468,14.468c0,7.987-6.481,14.468-14.468,14.468    c-7.993,0-14.474-6.48-14.474-14.468C178.78,275.403,185.261,268.934,193.254,268.934z" data-original="#000000" class="active-path" data-old_color="#000000" fill="#FF9000"/>
		<path d="M370.687,199.07c0.105-2.499,0.374-4.963,0.374-7.485c0-2.242-0.245-4.432-0.327-6.668    c0.888-4.326,3.06-8.752,5.139-12.839c2.055-4.572,4.215-8.659,4.67-10.977c1.893-7.678-2.568-12.284-7.473-15.273    c-3.492-2.161-7.17-3.573-9.482-5.179c-1.308-4.396-2.86-8.676-4.495-12.933c-0.468-4.595-0.023-9.604,0.374-14.182    c0.595-5.074,1.389-9.687,1.132-12.057c-2.184-13.464-16.371-12.086-23.038-13.762c-2.651-3.708-5.372-7.38-8.291-10.86    c-4.391-8.285-4.776-21.188-7.158-25.036c-6.002-12.424-19.35-6.06-26.087-5.634c-3.725-2.674-7.555-5.162-11.479-7.532    c-6.551-6.901-11.549-18.176-14.818-21.574c-5.406-5.698-11.841-4.227-16.896-2.032c-3.702,1.605-6.901,3.97-9.54,5.155    c-4.602-1.36-9.271-2.61-14.024-3.625c-8.279-4.169-16.301-13.44-20.4-15.192c-7.006-3.206-12.553-0.351-16.64,3.404    c-2.954,2.966-5.214,6.276-7.31,8.238c-4.735,0.204-9.447,0.467-14.071,1.027c-9.295-1.016-20.125-7.578-24.621-7.695    c-7.724-0.969-12.115,3.346-14.602,8.676c-1.875,3.719-2.966,7.573-4.35,10.031c-4.321,1.676-8.513,3.556-12.652,5.564    c-9.353,1.711-21.498-0.274-26.092,0.619c-7.76,1.413-10.019,7.607-10.941,13.037c-0.678,4.017-0.444,8.046-0.894,10.889    c-3.626,3.088-7.176,6.229-10.539,9.593c-7.975,4.735-20.47,6.218-24.032,8.833c-11.765,7.152-4.483,19.816-3.433,26.536    c-2.365,3.959-4.578,7.999-6.65,12.15c-2.843,3.439-7.029,6.323-10.714,9.026c-4.017,3.036-7.853,5.605-9.382,7.426    c-5.395,5.821-3.386,12.098-0.648,16.99c2.067,3.585,4.507,6.54,5.827,9.026c-0.958,4.595-1.618,9.266-2.225,13.966    c-3.772,8.67-11.695,17.662-13.703,21.941c-4.367,12.792,8.478,18.374,13.592,23.01c0.602,4.822,1.255,9.656,2.248,14.351    c-0.455,9.226-6.014,20.295-5.728,24.674c-0.432,13.768,14.1,14.585,20.341,17.364c2.032,4.156,4.221,8.197,6.551,12.179    c1.354,4.263,1.494,9.354,1.733,13.931c0.333,5.021,0.409,9.657,1.075,11.911c1.938,7.706,8.291,9.435,13.873,9.832    c4.151,0.233,7.976-0.21,10.812,0.069c3.299,3.293,6.791,6.365,10.317,9.389c5.354,7.742,8.25,19.828,10.93,23.576    c4.647,6.143,10.895,6.283,16.283,4.904c4.041-1.214,7.643-3.07,10.416-3.771c4.187,2.066,8.431,3.994,12.769,5.733    c3.661,2.511,6.936,6.224,9.855,9.879c3.299,3.877,6.253,7.286,8.192,8.677c3.129,2.276,6.229,3,9.073,2.768    c2.896-0.456,5.535-1.857,7.905-3.492c3.392-2.336,6.16-5.185,8.524-6.68c4.607,0.572,9.277,0.888,13.989,1.121    c8.991,3.002,18.636,10.404,23.074,11.795c7.485,2.65,12.425-1.904,15.822-6.225c2.453-3.246,4.181-6.703,5.921-8.934    c4.694-0.98,9.271-2.241,13.837-3.572c9.354-0.176,20.891,3.9,25.456,3.736c7.684-0.537,11.21-5.71,12.985-10.977    c1.203-4.028,1.611-8.08,2.545-10.801c3.877-2.301,7.684-4.707,11.374-7.299c4.192-1.833,9.225-2.627,14.024-3.082    c5.044-0.689,9.54-1.25,11.747-2.114c7.415-2.662,8.921-8.815,8.688-14.608c-0.093-4.145-0.958-8.057-0.876-10.859    c2.92-3.434,5.629-7.018,8.279-10.685c1.623-1.354,3.352-2.627,5.348-3.725c2.195-1.413,4.543-2.651,6.82-3.772    c4.577-2.265,8.886-4.133,10.73-5.628c10.055-9.167,1.227-20.271-1.027-26.775c1.693-4.344,3.316-8.7,4.694-13.195    c4.554-8.104,15.04-15.367,16.896-19.454C387.246,212.102,374.891,204.488,370.687,199.07z M192.168,350.744    c-87.759,0-159.159-71.405-159.159-159.159c0-87.748,71.399-159.147,159.159-159.147c87.765,0,159.17,71.411,159.17,159.159    C351.338,279.35,279.933,350.744,192.168,350.744z" data-original="#000000" class="active-path" data-old_color="#000000" fill="#FF9000"/>
		<path d="M193.254,41.038c-82.89,0-150.319,67.424-150.319,150.313c0,82.884,67.429,150.296,150.319,150.296    c82.873,0,150.296-67.424,150.296-150.296C343.55,108.45,276.126,41.038,193.254,41.038z M193.254,332.038    c-77.571,0-140.692-63.104-140.692-140.687c0-77.577,63.109-140.691,140.692-140.691c77.571,0,140.685,63.115,140.685,140.691    C333.939,268.934,270.813,332.038,193.254,332.038z" data-original="#000000" class="active-path" data-old_color="#000000" fill="#FF9000"/>
	</g>
</g></g> </svg>
