<?xml version="1.0" encoding="iso-8859-1"?>
<!-- Generator: Adobe Illustrator 19.0.0, SVG Export Plug-In . SVG Version: 6.00 Build 0)  -->
<svg version="1.1" id="Capa_1" xmlns="http://www.w3.org/2000/svg" xmlns:xlink="http://www.w3.org/1999/xlink" x="0px" y="0px"
	 viewBox="0 0 57 57" style="enable-background:new 0 0 57 57;" xml:space="preserve">
<g id="XMLID_78_">
	<path id="XMLID_127_" style="fill:#6E8C61;" d="M22,51v-4v-4v-4v-4c0-3.314,4.253-6,9.5-6c1.237,0,2.416,0.154,3.5,0.426V0H3v56
		h23.253C23.691,54.925,22,53.088,22,51"/>
	<path id="XMLID_126_" style="fill:#E9E8D3;" d="M8,21.094C10.301,17.438,14.361,15,19,15c4.639,0,8.699,2.437,11,6.094V10.975
		C29.835,10.99,29.669,11,29.5,11C26.462,11,24,8.537,24,5.5c0-0.169,0.01-0.335,0.025-0.5H13.975C13.99,5.165,14,5.331,14,5.5
		c0,3.037-2.462,5.5-5.5,5.5c-0.169,0-0.335-0.01-0.5-0.025V21.094z"/>
	<path id="XMLID_125_" style="fill:#E9E8D3;" d="M22,43v-2.356C21.037,40.873,20.034,41,19,41c-4.639,0-8.699-2.437-11-6.094v10.119
		C8.165,45.01,8.331,45,8.5,45c3.038,0,5.5,2.462,5.5,5.5c0,0.169-0.01,0.335-0.025,0.5H22v-4V43z"/>
	<path id="XMLID_124_" style="fill:#E9E8D3;" d="M27,5.5C27,4.121,28.121,3,29.5,3C30.879,3,32,4.121,32,5.5S30.879,8,29.5,8
		C28.121,8,27,6.879,27,5.5"/>
	<path id="XMLID_123_" style="fill:#E9E8D3;" d="M6,5.5C6,4.121,7.121,3,8.5,3C9.879,3,11,4.121,11,5.5S9.879,8,8.5,8
		C7.121,8,6,6.879,6,5.5"/>
	<path id="XMLID_122_" style="fill:#E9E8D3;" d="M6,50.5C6,49.121,7.121,48,8.5,48c1.379,0,2.5,1.121,2.5,2.5S9.879,53,8.5,53
		C7.121,53,6,51.879,6,50.5"/>
	<path id="XMLID_121_" style="fill:#FCC62D;" d="M41,35c0,3.314-4.253,6-9.5,6c-5.247,0-9.5-2.686-9.5-6s4.253-6,9.5-6
		C36.747,29,41,31.686,41,35"/>
	<path id="XMLID_120_" style="fill:#D19D18;" d="M31.5,53c-5.247,0-9.5-2.686-9.5-6v4c0,3.314,4.253,6,9.5,6
		c5.247,0,9.5-2.686,9.5-6v-4C41,50.314,36.747,53,31.5,53"/>
	<path id="XMLID_119_" style="fill:#E4AF18;" d="M31.5,49c-5.247,0-9.5-2.686-9.5-6v4c0,3.314,4.253,6,9.5,6
		c5.247,0,9.5-2.686,9.5-6v-4C41,46.314,36.747,49,31.5,49"/>
	<path id="XMLID_118_" style="fill:#D19D18;" d="M31.5,45c-5.247,0-9.5-2.686-9.5-6v4c0,3.314,4.253,6,9.5,6
		c5.247,0,9.5-2.686,9.5-6v-4C41,42.314,36.747,45,31.5,45"/>
	<path id="XMLID_117_" style="fill:#E4AF18;" d="M31.5,41c-5.247,0-9.5-2.686-9.5-6v4c0,3.314,4.253,6,9.5,6
		c5.247,0,9.5-2.686,9.5-6v-4C41,38.314,36.747,41,31.5,41"/>
	<path id="XMLID_116_" style="fill:#FCC62D;" d="M54,23c0,3.314-4.253,6-9.5,6S35,26.314,35,23s4.253-6,9.5-6S54,19.686,54,23"/>
	<path id="XMLID_115_" style="fill:#E9E8D3;" d="M24.919,30.679C27.018,26.929,25,23,25,23c-0.853-0.249-3.352,0.496-3.639,1.306
		C20.474,23.497,19.296,23,18,23c-1.625,0-2.313,1.7-2.807,1.871C14.951,24.954,14.7,24.996,14.449,25
		c-0.746,0.012-1.444-0.373-1.946-0.924l-3.726-4.089C7.043,22.196,6,24.974,6,28c0,3.026,1.043,5.804,2.776,8.013l3.693-4.059
		c0.607-0.666,1.501-1.07,2.388-0.915c0.126,0.023,0.251,0.054,0.375,0.096c0.321,0.108,1.893,1.783,2.238,1.822
		c1.048,2.471,3.334,1.482,4.903,0.391C22.841,32.317,23.728,31.402,24.919,30.679"/>
	<path id="XMLID_114_" style="fill:#E4AF18;" d="M44.5,53c-1.356,0-2.642-0.182-3.809-0.505c-0.455,1.117-1.401,2.106-2.691,2.872
		C39.7,56.377,41.982,57,44.5,57c5.247,0,9.5-2.686,9.5-6v-4C54,50.314,49.747,53,44.5,53"/>
	<path id="XMLID_113_" style="fill:#D19D18;" d="M44.5,49c-1.237,0-2.416-0.154-3.5-0.426V51c0,0.517-0.115,1.016-0.309,1.495
		C41.858,52.818,43.144,53,44.5,53c5.247,0,9.5-2.686,9.5-6v-4C54,46.314,49.747,49,44.5,49"/>
	<path id="XMLID_112_" style="fill:#E4AF18;" d="M44.5,45c-1.237,0-2.416-0.154-3.5-0.426V47v1.574C42.084,48.846,43.263,49,44.5,49
		c5.247,0,9.5-2.686,9.5-6v-4C54,42.314,49.747,45,44.5,45"/>
	<path id="XMLID_111_" style="fill:#D19D18;" d="M44.5,41c-1.237,0-2.416-0.154-3.5-0.426V43v1.574C42.084,44.846,43.263,45,44.5,45
		c5.247,0,9.5-2.686,9.5-6v-4C54,38.314,49.747,41,44.5,41"/>
	<path id="XMLID_110_" style="fill:#E4AF18;" d="M44.5,37c-1.237,0-2.416-0.154-3.5-0.426V39v1.574C42.084,40.846,43.263,41,44.5,41
		c5.247,0,9.5-2.686,9.5-6v-4C54,34.314,49.747,37,44.5,37"/>
	<path id="XMLID_109_" style="fill:#D19D18;" d="M44.5,33c-1.648,0-3.198-0.266-4.549-0.732C40.617,33.088,41,34.015,41,35v1.574
		C42.084,36.846,43.263,37,44.5,37c5.247,0,9.5-2.686,9.5-6v-4C54,30.314,49.747,33,44.5,33"/>
	<path id="XMLID_108_" style="fill:#E4AF18;" d="M44.5,29c-5.247,0-9.5-2.686-9.5-6v4c0,0.985,0.383,1.912,1.049,2.732
		c1.671,0.577,3.031,1.464,3.902,2.536C41.302,32.734,42.852,33,44.5,33c5.247,0,9.5-2.686,9.5-6v-4C54,26.314,49.747,29,44.5,29"/>
	<path id="XMLID_107_" style="fill:#607B53;" d="M44,17.016V0h-3v17.426C41.936,17.191,42.945,17.051,44,17.016"/>
	<path id="XMLID_106_" style="fill:#546949;" d="M41,17.426V0h-3v18.633C38.864,18.119,39.878,17.707,41,17.426"/>
	<path id="XMLID_77_" style="fill:#607B53;" d="M38,18.632V0.001h-3v23C35,21.276,36.157,19.727,38,18.632"/>
</g>
<g>
</g>
<g>
</g>
<g>
</g>
<g>
</g>
<g>
</g>
<g>
</g>
<g>
</g>
<g>
</g>
<g>
</g>
<g>
</g>
<g>
</g>
<g>
</g>
<g>
</g>
<g>
</g>
<g>
</g>
</svg>
