<?xml version="1.0"?>
<svg xmlns="http://www.w3.org/2000/svg" id="Capa_1" enable-background="new 0 0 512 512" height="512px" viewBox="0 0 512 512" width="512px"><g><g><g><path d="m243.255 222.447-41.413-15.073 68.404-187.939 41.413 15.073c7.785 2.833 11.798 11.441 8.965 19.226l-58.143 159.748c-2.833 7.784-11.441 11.798-19.226 8.965z" data-original="#000000" class="active-path" data-old_color="#000000" fill="#FB5252"/><g><path d="m.987 490.438c-1.811 4.977-1.144 10.628 2.12 14.799 1.779 2.273 4.111 3.92 6.687 4.858 2.928 1.066 6.172 1.214 9.279.32 23.503-6.762 42.954-22.952 53.947-44.44-21.09-.458-40.415-8.206-55.552-20.819z" data-original="#000000" class="active-path" data-old_color="#000000" fill="#FB5252"/><path d="m241.183 8.856-14.097-5.13c-23.354-8.499-49.176 3.542-57.676 26.896l-92.95 255.378h63.851z" data-original="#000000" class="active-path" data-old_color="#000000" fill="#FB5252"/></g></g><g><path d="m452 316h-377c-33.137 0-60 26.863-60 60 0 33.137 26.863 60 60 60h377c33.137 0 60-26.863 60-60 0-33.137-26.863-60-60-60zm-377 75c-8.284 0-15-6.716-15-15s6.716-15 15-15 15 6.716 15 15-6.716 15-15 15zm301.234 0h-225.468c-8.284 0-15-6.716-15-15s6.716-15 15-15h225.469c8.284 0 15 6.716 15 15s-6.717 15-15.001 15zm75.766 0c-8.284 0-15-6.716-15-15s6.716-15 15-15 15 6.716 15 15-6.716 15-15 15z" data-original="#000000" class="active-path" data-old_color="#000000" fill="#FB5252"/></g></g></g> </svg>
