<?xml version="1.0" encoding="iso-8859-1"?>
<!-- Generator: Adobe Illustrator 18.0.0, SVG Export Plug-In . SVG Version: 6.00 Build 0)  -->
<!DOCTYPE svg PUBLIC "-//W3C//DTD SVG 1.1//EN" "http://www.w3.org/Graphics/SVG/1.1/DTD/svg11.dtd">
<svg version="1.1" id="Capa_1" xmlns="http://www.w3.org/2000/svg" xmlns:xlink="http://www.w3.org/1999/xlink" x="0px" y="0px"
	 viewBox="0 0 58 58" style="enable-background:new 0 0 58 58;" xml:space="preserve">
<g>
	<path style="fill:#556080;" d="M8,24.5c-0.256,0-0.512-0.098-0.707-0.293c-0.391-0.391-0.391-1.023,0-1.414l17-17
		c0.391-0.391,1.023-0.391,1.414,0s0.391,1.023,0,1.414l-17,17C8.512,24.402,8.256,24.5,8,24.5z"/>
	<path style="fill:#556080;" d="M50,24.5c-0.256,0-0.512-0.098-0.707-0.293l-17-17c-0.391-0.391-0.391-1.023,0-1.414
		s1.023-0.391,1.414,0l17,17c0.391,0.391,0.391,1.023,0,1.414C50.512,24.402,50.256,24.5,50,24.5z"/>
	<circle style="fill:#F9EAB0;" cx="29" cy="6.5" r="4"/>
	<rect y="23.5" style="fill:#E64C3C;" width="58" height="32"/>
	<path style="fill:#FFFFFF;" d="M11,50.5c-2.757,0-5-2.243-5-5v-12c0-2.757,2.243-5,5-5s5,2.243,5,5v12
		C16,48.257,13.757,50.5,11,50.5z M11,30.5c-1.654,0-3,1.346-3,3v12c0,1.654,1.346,3,3,3s3-1.346,3-3v-12
		C14,31.846,12.654,30.5,11,30.5z"/>
	<path style="fill:#FFFFFF;" d="M23,43.5c-2.757,0-5-2.243-5-5v-5c0-2.757,2.243-5,5-5s5,2.243,5,5v5C28,41.257,25.757,43.5,23,43.5
		z M23,30.5c-1.654,0-3,1.346-3,3v5c0,1.654,1.346,3,3,3s3-1.346,3-3v-5C26,31.846,24.654,30.5,23,30.5z"/>
	<path style="fill:#FFFFFF;" d="M31,50.5c-0.552,0-1-0.447-1-1v-20c0-0.553,0.448-1,1-1s1,0.447,1,1v20
		C32,50.053,31.552,50.5,31,50.5z"/>
	<path style="fill:#FFFFFF;" d="M51,50.5c-0.552,0-1-0.447-1-1v-20c0-0.553,0.448-1,1-1s1,0.447,1,1v20
		C52,50.053,51.552,50.5,51,50.5z"/>
	<path style="fill:#FFFFFF;" d="M43,50.5c-0.552,0-1-0.447-1-1v-20c0-0.553,0.448-1,1-1s1,0.447,1,1v20
		C44,50.053,43.552,50.5,43,50.5z"/>
	<path style="fill:#FFFFFF;" d="M19,50.5c-0.552,0-1-0.447-1-1v-11c0-0.553,0.448-1,1-1s1,0.447,1,1v11
		C20,50.053,19.552,50.5,19,50.5z"/>
	<path style="fill:#FFFFFF;" d="M39,40.5h-8c-0.552,0-1-0.447-1-1s0.448-1,1-1h8c0.552,0,1,0.447,1,1S39.552,40.5,39,40.5z"/>
	<path style="fill:#FFFFFF;" d="M39,30.5h-8c-0.552,0-1-0.447-1-1s0.448-1,1-1h8c0.552,0,1,0.447,1,1S39.552,30.5,39,30.5z"/>
	<path style="fill:#FFFFFF;" d="M39,50.5h-8c-0.552,0-1-0.447-1-1s0.448-1,1-1h8c0.552,0,1,0.447,1,1S39.552,50.5,39,50.5z"/>
	<path style="fill:#FFFFFF;" d="M51,50.5c-0.397,0-0.772-0.237-0.929-0.629l-8-20c-0.205-0.513,0.044-1.095,0.557-1.3
		c0.515-0.205,1.095,0.044,1.3,0.558l8,20c0.205,0.513-0.044,1.095-0.557,1.3C51.25,50.478,51.124,50.5,51,50.5z"/>
</g>
<g>
</g>
<g>
</g>
<g>
</g>
<g>
</g>
<g>
</g>
<g>
</g>
<g>
</g>
<g>
</g>
<g>
</g>
<g>
</g>
<g>
</g>
<g>
</g>
<g>
</g>
<g>
</g>
<g>
</g>
</svg>
