<?xml version="1.0"?>
<svg xmlns="http://www.w3.org/2000/svg" xmlns:xlink="http://www.w3.org/1999/xlink" version="1.1" id="Capa_1" x="0px" y="0px" width="512px" height="512px" viewBox="0 0 24.438 24.438" style="enable-background:new 0 0 24.438 24.438;" xml:space="preserve"><g><g>
	<path d="M23.504,15.49c1.125-1.375,2.688-11-5.125-14.25c-7.812-3.25-11.562,1.625-11.5,3.625C4.254,5.802,3.691,8.74,3.691,8.74   s-3.813,1.875-3.688,4.125s2.875,2.375,2.875,2.375l0.834,1.146l0.166-1.146c0,0,4.109-1.896,4.297-0.238   c0.188,1.656-3.608,2.238-3.608,2.238l-0.771-0.562l0.235,1.049c0,0-0.839,0.264-0.464,1.075c0.75,1.25,3.25-0.438,3.25-0.438   s-1.936,7.307,3.624,5.688c-3.438-1.75-0.313-4.438-0.313-4.438s0.688,7,7.5,2.75c-5.375,0.563-4.143-2.146-3.562-2.75   c0.58-0.604,3.562-3.705,3.562-3.705s1.563,2.33-2.25,5.187c5,1.333,5.25-7.792,5.25-7.792s1.188,4.375-1.938,7.312   c7.125-1.562,3.562-10.5,3.562-10.5S23.566,10.552,23.504,15.49z M4.687,8.49C4.567,8.037,4.911,7.677,5.27,7.615   s1.667,0.324,2.046,0.527C7.695,8.345,4.807,8.943,4.687,8.49z" data-original="#000000" class="active-path" data-old_color="#000000" fill="#FFCE00"/>
</g></g> </svg>
